<?xml version="1.0" standalone="no"?>
<svg version="1.0" xmlns="http://www.w3.org/2000/svg" width="620" height="620" viewBox="0 0 620 620">
  <defs>
    <linearGradient id="circleGradient" x1="0%" y1="0%" x2="100%" y2="100%">
      <stop offset="0%" stop-color="#d8b4e8" />
      <stop offset="100%" stop-color="#c090d4" />
    </linearGradient>
  </defs>

  <!-- Gradient circle -->
  <circle cx="310" cy="310" r="310" fill="url(#circleGradient)" />

  <!-- Cat -->
  <g transform="translate(-42.5,662.5) scale(0.100000,-0.100000)" fill="#23273A" stroke="none">
    <path d="M2190 5573 c-163 -170 -319 -705 -435 -1493 -14 -95 -27 -175 -28
-176 -1 -2 -45 8 -97 22 -52 13 -127 27 -166 30 -68 6 -71 6 -92 -21 -40 -51
-13 -88 71 -99 28 -4 101 -19 162 -33 94 -22 106 -27 85 -35 -31 -12 -143 -2
-211 18 -45 14 -53 14 -74 0 -56 -37 -36 -93 42 -121 26 -9 93 -19 148 -23 98
-6 99 -6 60 -18 -22 -7 -75 -13 -117 -13 -64 -1 -82 -5 -98 -21 -25 -25 -25
-51 -1 -81 16 -20 28 -23 87 -24 38 0 89 4 113 8 l44 8 -7 -73 c-45 -470 -70
-936 -63 -1123 13 -300 90 -481 280 -662 93 -88 202 -153 327 -196 l95 -32
1190 -3 c1061 -2 1199 -1 1270 13 160 33 297 107 424 229 120 116 200 251 242
411 45 170 29 762 -37 1376 l-6 57 53 -10 c108 -20 189 7 189 63 0 41 -35 59
-112 59 -40 0 -91 6 -113 12 -40 12 -39 12 52 19 111 8 188 32 209 64 20 31
15 53 -17 77 -25 19 -28 19 -81 3 -64 -18 -191 -25 -196 -10 -4 12 57 28 196
54 57 10 107 23 112 27 20 22 20 52 -2 79 -21 26 -24 27 -87 22 -36 -3 -106
-15 -154 -27 -49 -12 -90 -20 -92 -18 -3 2 -18 98 -35 213 -110 743 -270 1283
-429 1446 -51 53 -61 59 -97 59 -100 0 -247 -164 -365 -407 -49 -100 -119
-297 -119 -333 0 -10 -3 -21 -8 -24 -4 -2 -75 3 -157 12 -282 30 -1129 21
-1332 -14 -30 -6 -32 -4 -43 38 -95 370 -333 728 -484 728 -36 0 -46 -6 -96
-57z m162 -370 c30 -34 67 -122 103 -238 19 -65 34 -119 33 -120 -2 -1 -50
-14 -108 -29 -58 -16 -129 -37 -158 -48 -29 -11 -56 -18 -59 -15 -7 8 25 206
48 288 42 150 96 213 141 162z m2415 -5 c31 -34 50 -77 73 -164 20 -80 52
-275 46 -281 -2 -2 -37 7 -77 21 -41 13 -112 34 -159 47 -47 12 -86 23 -88 24
-2 2 9 44 23 94 51 175 105 281 144 281 10 0 27 -10 38 -22z m-1685 -876 c251
-123 279 -483 54 -708 -216 -216 -546 -184 -669 65 -30 62 -32 71 -32 181 0
132 12 175 81 282 60 93 159 168 269 204 24 8 77 13 135 11 85 -2 103 -6 162
-35z m1248 2 c93 -44 165 -105 214 -182 69 -107 81 -150 81 -282 0 -110 -2
-119 -32 -181 -123 -249 -453 -281 -669 -65 -173 173 -203 437 -68 613 34 45
84 81 151 109 51 22 70 24 158 22 87 -3 108 -7 165 -34z m-728 -585 c25 -13
22 -31 -7 -59 -31 -29 -32 -62 -2 -120 25 -50 55 -70 108 -70 50 0 79 26 86
77 6 45 23 59 54 43 25 -14 25 -73 1 -119 -26 -48 -74 -71 -145 -71 -65 0
-111 18 -144 58 l-23 27 -22 -27 c-34 -40 -80 -58 -145 -58 -100 0 -163 55
-163 142 0 40 24 63 54 52 18 -7 17 -5 21 -54 4 -43 35 -70 84 -70 53 0 83 20
109 70 30 60 29 95 -5 124 -17 15 -24 29 -20 39 12 33 109 42 159 16z m-415
-825 c123 -103 229 -196 234 -208 21 -44 11 -54 -389 -379 -45 -37 -89 -67
-97 -67 -8 0 -26 12 -40 28 -47 50 -38 62 177 236 l197 159 -200 159 c-128
103 -199 166 -199 178 0 26 48 80 72 80 11 0 119 -82 245 -186z m1031 -767 c6
-69 15 -67 -332 -67 -335 0 -336 0 -336 51 0 63 -19 60 339 57 l326 -3 3 -38z"/>
    <path d="M2847 4216 c-123 -44 -197 -146 -197 -270 0 -242 284 -373 464 -215
69 61 100 127 100 214 0 56 -6 80 -27 121 -65 128 -216 194 -340 150z m135
-53 c22 -20 24 -76 2 -97 -8 -9 -28 -16 -43 -16 -59 0 -87 57 -51 103 25 31
64 36 92 10z"/>
    <path d="M4039 4215 c-60 -19 -133 -85 -166 -149 -38 -72 -38 -170 0 -242 76
-148 248 -204 388 -128 201 110 200 389 -1 498 -64 35 -152 43 -221 21z m131
-62 c36 -46 8 -103 -51 -103 -36 0 -59 24 -59 62 0 67 70 92 110 41z"/>
  </g>
</svg>
